<svg width="5900" height="983" viewBox="0 0 5900 983" fill="none" xmlns="http://www.w3.org/2000/svg">
<path d="M5817.89 109.431H5803.65V39.7069H5836.67C5841.82 39.7069 5846.13 40.536 5849.62 42.194C5853.11 43.7949 5855.74 46.1105 5857.51 49.1408C5859.28 52.1138 5860.17 55.5729 5860.17 59.518C5860.17 64.435 5858.51 68.6945 5855.19 72.2965C5851.88 75.8413 5847.28 78.014 5841.39 78.8144C5844.42 79.9579 5846.85 81.6732 5848.68 83.9602C5850.56 86.19 5853.05 89.9921 5856.14 95.3665L5864.37 109.431H5846.79L5841.04 98.1967C5838.36 93.1653 5836.07 89.4489 5834.18 87.0476C5832.3 84.5891 5830.41 82.931 5828.52 82.0734C5826.64 81.2158 5824.32 80.787 5821.58 80.787H5817.89V109.431ZM5817.89 50.7702V69.7237H5829.29C5834.44 69.7237 5838.36 69.0661 5841.04 67.7511C5843.73 66.3789 5845.07 63.6917 5845.07 59.6895C5845.07 56.9451 5843.9 54.7725 5841.56 53.1716C5839.21 51.5707 5835.58 50.7702 5830.67 50.7702H5817.89ZM5833.33 8.57532C5842.3 8.57532 5850.76 10.262 5858.71 13.6353C5866.72 16.9514 5873.75 21.6683 5879.81 27.786C5885.93 33.8465 5890.64 40.879 5893.96 48.8835C5897.33 56.8308 5899.02 65.2926 5899.02 74.269C5899.02 86.1614 5896.07 97.1675 5890.19 107.287C5884.35 117.35 5876.38 125.326 5866.26 131.215C5856.2 137.047 5845.22 139.963 5833.33 139.963C5821.43 139.963 5810.43 137.047 5800.31 131.215C5790.24 125.326 5782.27 117.35 5776.38 107.287C5770.55 97.1675 5767.63 86.1614 5767.63 74.269C5767.63 62.3767 5770.55 51.3992 5776.38 41.3364C5782.27 31.2165 5790.24 23.2406 5800.31 17.4088C5810.43 11.5198 5821.43 8.57532 5833.33 8.57532ZM5833.5 21.4396C5823.95 21.4396 5815.12 23.8124 5807 28.5579C5798.88 33.2462 5792.45 39.6498 5787.7 47.7686C5782.95 55.8874 5780.58 64.7209 5780.58 74.269C5780.58 83.8172 5782.95 92.6793 5787.7 100.855C5792.5 108.974 5798.96 115.378 5807.08 120.066C5815.2 124.754 5824.01 127.098 5833.5 127.098C5843.16 127.098 5851.99 124.754 5860 120.066C5868.06 115.32 5874.43 108.888 5879.12 100.77C5883.81 92.6507 5886.15 83.8172 5886.15 74.269C5886.15 64.6637 5883.81 55.8016 5879.12 47.6828C5874.43 39.564 5868.06 33.1604 5860 28.4721C5851.94 23.7838 5843.1 21.4396 5833.5 21.4396Z" fill="black"/>
<path d="M3.6912 146.953H28.1884L27.5493 137.154C36.9221 146.314 45.6559 150.148 57.372 150.148C80.165 150.148 97.2065 131.615 97.2065 106.692C97.2065 94.337 93.1591 84.1121 85.0644 76.0174C79.0999 70.2659 70.1531 65.3665 48.8512 55.7806C35.218 49.6031 31.1706 45.5557 31.1706 37.8871C31.1706 30.8574 36.4961 25.532 43.9518 25.532C50.1293 25.532 56.7329 28.3012 60.5672 32.5616C63.3365 35.7569 63.9755 37.674 65.0406 46.8339H88.8987C88.6857 28.3012 88.6857 28.3012 88.6857 26.5971L88.8987 12.5378V4.4431H64.6146L65.2536 12.9639C56.9459 4.86913 49.2772 1.67385 37.9872 1.67385C16.0463 1.67385 0.282898 18.7154 0.282898 41.9344C0.282898 50.4552 2.62611 58.3369 7.0995 64.5144C11.9989 71.544 18.8155 76.4435 32.8748 83.2601C53.1116 93.0589 53.1116 93.0589 56.9459 95.8282C60.9933 99.0235 63.5495 103.923 63.5495 109.035C63.5495 117.769 56.0938 124.586 46.934 124.586C40.5435 124.586 34.3659 121.177 31.1706 115.639C28.6144 111.592 27.7623 106.905 27.7623 99.0235H3.6912C3.90422 107.544 4.11724 111.592 4.11724 118.195C4.11724 127.355 4.11724 129.485 3.6912 146.953Z" fill="black"/>
<path d="M140.3 37.035C150.311 37.035 158.406 28.9403 158.406 18.9284C158.406 9.12952 150.311 0.821777 140.513 0.821777C130.501 0.821777 122.193 8.9165 122.193 18.7154C122.193 28.9403 130.288 37.035 140.3 37.035ZM109.199 147.166C121.128 146.953 122.193 146.953 123.471 146.953H154.785C156.276 146.953 156.276 146.953 169.057 147.166V124.16L154.785 124.586V46.6208H147.329C142.856 46.6208 139.873 46.8339 139.234 46.8339H123.471C121.98 46.8339 121.98 46.8338 109.199 46.6208V69.4138L123.471 69.2008V124.586L109.199 124.16V147.166Z" fill="black"/>
<path d="M177.639 147.166C189.568 146.953 190.634 146.953 191.912 146.953H223.225C224.717 146.953 224.717 146.953 237.498 147.166V124.16L223.225 124.586V79.8518C228.125 75.1654 233.663 72.6091 238.989 72.6091C245.379 72.6091 248.362 76.2304 248.362 84.1121V147.166H256.882C262.208 147.166 266.042 146.953 267.533 146.953H279.675C281.167 146.953 281.167 146.953 293.735 147.166V124.16L279.675 124.586V76.2304C279.675 56.4197 269.024 44.7037 251.344 44.7037C241.119 44.7037 232.598 48.112 223.225 56.2067V46.6208C213.427 46.8338 208.953 46.8339 202.563 46.8339H191.699C188.503 46.8339 187.864 46.8338 177.639 46.4078V69.4138L191.912 69.2008V124.586L177.639 124.16V147.166Z" fill="black"/>
<path d="M299.979 96.0412C299.979 125.651 323.624 149.083 353.447 149.083C364.95 149.083 377.092 145.036 386.251 138.432C393.707 133.106 397.754 128.207 403.506 117.343L376.879 104.988C371.553 117.13 364.523 122.669 354.512 122.669C341.517 122.669 332.571 112.018 332.571 96.6803C332.571 81.3429 341.091 71.9701 354.938 71.9701C366.441 71.9701 373.257 77.5086 376.453 89.2246H400.311C400.098 74.1003 400.098 72.6091 400.098 66.6446C400.098 60.254 400.098 58.3369 400.311 46.8339H376.879L377.305 53.6504C367.932 47.2599 359.624 44.7037 349.612 44.7037C321.92 44.7037 299.979 67.4967 299.979 96.0412Z" fill="black"/>
<path d="M414.19 98.3844C414.19 129.272 434.001 149.083 464.463 149.083C487.682 149.083 502.806 140.562 513.031 122.029L486.83 113.722C481.078 123.095 475.753 126.29 465.954 126.29C452.96 126.29 445.291 118.621 444.226 104.136H513.457L513.67 97.5323C514.735 66.0055 493.859 44.7037 464.676 44.7037C434.64 44.7037 414.19 66.6446 414.19 98.3844ZM444.439 86.4554C446.143 73.8872 452.32 67.7097 462.971 67.7097C473.622 67.7097 480.013 74.1003 481.717 86.4554H444.439Z" fill="black"/>
<path d="M576.837 147.379C588.127 147.166 602.186 146.953 602.825 146.953H645.642C647.133 146.953 655.228 147.166 670.352 147.379C670.778 129.911 671.204 115.852 671.843 104.988L647.346 104.775L646.707 123.521H608.363C611.346 110.739 619.653 101.367 639.464 86.8814C653.736 76.4435 658.21 72.1831 662.896 65.3665C667.157 58.9759 669.926 50.2421 669.926 42.3605C669.926 19.5674 650.967 2.0999 626.044 2.0999C611.985 2.0999 599.63 7.63838 591.322 17.6503C583.44 26.8101 580.458 36.6089 579.819 54.5025L609.429 55.7806C609.216 52.5854 609.003 49.8161 609.003 48.325C609.003 34.2657 614.115 26.171 623.275 26.171C631.37 26.171 636.482 31.9225 636.482 41.0823C636.482 52.5854 632.009 59.402 615.393 73.2482C588.34 96.0412 579.819 112.444 576.837 147.379Z" fill="black"/>
<path d="M732.127 149.722C745.548 149.722 757.264 144.396 765.145 135.024C776.222 121.39 781.122 102.858 781.122 74.9523C781.122 27.4491 764.293 2.0999 732.766 2.0999C699.536 2.0999 682.92 26.5971 682.92 75.3784C682.92 123.521 700.175 149.722 732.127 149.722ZM722.755 119.26C718.494 113.296 716.364 97.9584 716.364 74.5263C716.364 39.3782 720.624 26.384 732.34 27.0231C743.63 27.6622 747.678 39.8042 747.678 73.6742C747.678 109.674 742.991 124.799 732.127 124.799C728.719 124.799 725.524 122.882 722.755 119.26Z" fill="black"/>
<path d="M801.473 147.166H812.55C817.663 147.166 821.071 146.953 822.349 146.953H853.237C856.219 146.953 857.497 146.953 873.261 147.166V123.521L853.663 123.734V1.46084H837.26C831.722 13.1769 819.793 18.5023 799.982 18.0763V42.3605C807.225 42.1474 810.846 41.9344 821.071 40.2303V123.734L801.473 123.521V147.166Z" fill="black"/>
<path d="M889.5 147.379C900.79 147.166 914.849 146.953 915.488 146.953H958.305C959.796 146.953 967.891 147.166 983.015 147.379C983.441 129.911 983.867 115.852 984.506 104.988L960.009 104.775L959.37 123.521H921.027C924.009 110.739 932.317 101.367 952.128 86.8814C966.4 76.4435 970.873 72.1831 975.56 65.3665C979.82 58.9759 982.589 50.2421 982.589 42.3605C982.589 19.5674 963.631 2.0999 938.707 2.0999C924.648 2.0999 912.293 7.63838 903.985 17.6503C896.104 26.8101 893.121 36.6089 892.482 54.5025L922.092 55.7806C921.879 52.5854 921.666 49.8161 921.666 48.325C921.666 34.2657 926.778 26.171 935.938 26.171C944.033 26.171 949.145 31.9225 949.145 41.0823C949.145 52.5854 944.672 59.402 928.056 73.2482C901.003 96.0412 892.482 112.444 889.5 147.379Z" fill="black"/>
<path d="M0.282898 748.032C12.8414 747.246 25.3998 747.246 29.3244 747.246C45.0225 746.459 55.2262 746.459 60.7205 746.459H148.63C154.124 746.459 165.113 746.459 180.026 747.246C183.951 747.246 195.724 747.246 208.283 748.032V656.826L148.63 658.399V355.69L371.543 746.459H483.784V310.088L544.222 311.66V220.454C531.663 221.241 519.105 221.241 515.18 221.241C499.482 222.027 489.278 222.027 483.784 222.027H395.09C390.38 222.027 381.746 222.027 367.618 221.241C364.479 221.241 351.135 221.241 338.577 220.454V311.66L395.875 310.088V551.468L208.283 221.241L109.385 222.027H60.7205C55.2262 222.027 45.0225 222.027 29.3244 221.241C25.3998 221.241 12.8414 221.241 0.282898 220.454V311.66L60.7205 310.088V658.399L0.282898 656.826V748.032Z" fill="#B61F36"/>
<path d="M572.809 567.193C572.809 681.2 645.805 754.322 758.047 754.322C843.601 754.322 899.33 722.872 937.005 654.467L840.462 623.803C819.269 658.399 799.647 670.193 763.541 670.193C715.662 670.193 687.405 641.887 683.481 588.422H938.575L939.36 564.048C943.284 447.682 866.364 369.057 758.832 369.057C648.16 369.057 572.809 450.041 572.809 567.193ZM684.266 523.163C690.545 476.774 713.307 453.972 752.552 453.972C791.798 453.972 815.345 477.56 821.624 523.163H684.266Z" fill="#B61F36"/>
<path d="M1098.33 747.246H1200.36L1268.65 510.583L1333.8 747.246H1438.98L1528.46 459.476L1576.33 460.262V375.347C1538.66 376.919 1537.87 376.919 1525.32 376.919H1448.39C1433.48 376.919 1421.71 376.919 1398.16 376.133V461.049L1440.55 459.476L1398.16 618.3L1329.09 376.133C1292.98 376.919 1289.84 376.919 1278.07 376.919C1265.51 376.919 1261.59 376.919 1227.84 376.133L1157.98 618.3L1117.17 459.476L1155.63 461.049V376.133C1108.53 376.919 1103.04 376.919 1091.26 376.919H1017.48C985.301 376.919 978.237 376.919 953.905 376.133V460.262L1004.14 459.476L1098.33 747.246Z" fill="#B61F36"/>
<path d="M1608.75 747.246H1696.66L1698.23 732.307C1728.05 747.246 1757.1 754.322 1786.14 754.322C1870.12 754.322 1929.77 702.429 1929.77 629.307C1929.77 563.262 1885.82 526.308 1786.14 510.583C1714.71 498.789 1714.71 498.789 1702.94 492.499C1697.44 488.568 1692.73 481.491 1692.73 474.415C1692.73 458.69 1711.57 449.255 1741.4 449.255C1785.35 449.255 1810.47 462.621 1817.53 490.14H1903.87V376.133H1822.24L1813.61 392.644C1787.71 375.347 1764.16 369.057 1729.62 369.057C1651.92 369.057 1594.62 417.805 1594.62 483.85C1594.62 514.514 1607.18 541.247 1630.73 560.903C1654.27 580.559 1678.6 589.208 1736.69 599.43C1794.77 609.651 1804.97 612.01 1816.75 619.086C1823.81 623.803 1829.31 632.452 1829.31 641.887C1829.31 662.33 1806.54 675.696 1772.01 675.696C1753.96 675.696 1735.12 670.979 1721.77 663.116C1705.29 653.681 1697.44 640.315 1697.44 620.658V612.796H1608.75V747.246Z" fill="#B61F36"/>
<path d="M2261.41 748.032C2316.35 746.459 2321.85 746.459 2341.47 746.459H2449.79C2467.84 746.459 2474.9 746.459 2525.14 748.032V657.612L2470.98 658.399L2306.93 453.186L2445.86 310.088L2512.58 311.66V220.454C2470.98 222.027 2467.84 222.027 2449 222.027H2344.61C2332.83 222.027 2328.13 222.027 2272.4 220.454V311.66L2330.48 310.088L2173.5 474.415L2320.28 658.399L2261.41 656.826V748.032ZM1970.21 748.032C1984.34 747.246 1994.54 747.246 1999.25 747.246C2014.95 746.459 2025.15 746.459 2030.65 746.459H2164.08C2169.57 746.459 2179.78 746.459 2194.69 747.246C2198.62 747.246 2210.39 747.246 2223.73 748.032V656.826L2164.08 658.399V310.088L2223.73 311.66V220.454C2210.39 221.241 2198.62 221.241 2194.69 221.241C2179.78 222.027 2169.57 222.027 2164.08 222.027H2030.65C2025.15 222.027 2014.95 222.027 1999.25 221.241C1994.54 221.241 1984.34 221.241 1970.21 220.454V311.66L2030.65 310.088V658.399L1970.21 656.826V748.032Z" fill="#B61F36"/>
<path d="M2569.73 631.666C2569.73 703.215 2623.1 754.322 2697.67 754.322C2736.91 754.322 2764.38 744.101 2798.14 715.009V747.246C2825.61 746.459 2827.96 746.459 2836.6 746.459H2911.16C2916.66 746.459 2916.66 746.459 2963.75 747.246V662.33L2911.16 663.903V515.3C2911.16 487.781 2910.38 475.987 2908.02 464.194C2901.74 433.53 2883.69 409.156 2855.43 392.644C2827.18 376.919 2792.64 369.057 2747.9 369.057C2659.21 369.057 2608.19 395.003 2571.3 460.262L2673.34 478.346C2685.89 454.759 2703.95 445.324 2733.77 445.324C2776.94 445.324 2798.14 465.766 2798.14 506.651V531.025C2768.31 517.659 2741.62 512.155 2709.44 512.155C2627.03 512.155 2569.73 561.689 2569.73 631.666ZM2686.68 627.735C2686.68 602.575 2706.3 584.491 2732.2 584.491C2751.83 584.491 2765.17 589.208 2798.14 607.292V639.529C2765.17 664.689 2750.26 671.765 2730.63 671.765C2703.95 671.765 2686.68 654.467 2686.68 627.735Z" fill="#B61F36"/>
<path d="M2990.28 747.246C3034.24 746.459 3037.38 746.459 3042.87 746.459H3173.95C3179.45 746.459 3179.45 746.459 3226.54 747.246V662.33L3158.25 663.903V638.742C3158.25 589.208 3162.96 560.903 3174.74 536.529C3192.79 501.148 3228.9 480.705 3274.42 480.705H3285.41V367.484C3219.48 368.27 3183.37 394.217 3149.62 465.766V376.133C3115.87 376.919 3100.17 376.919 3082.9 376.919H3042.87C3037.38 376.919 3037.38 376.919 2990.28 376.133V461.049L3042.87 459.476V663.903L2990.28 662.33V747.246Z" fill="#B61F36"/>
<path d="M3319.88 747.246C3363.84 746.459 3367.76 746.459 3372.47 746.459H3487.85C3493.35 746.459 3493.35 746.459 3540.44 747.246V662.33L3487.85 663.903V498.789C3505.91 481.491 3526.31 472.056 3545.94 472.056C3569.48 472.056 3580.47 485.423 3580.47 514.514V747.246H3611.87C3631.49 747.246 3645.62 746.459 3651.11 746.459H3695.85C3701.35 746.459 3701.35 746.459 3747.66 747.246V662.33L3695.85 663.903V485.423C3695.85 412.301 3656.61 369.057 3591.46 369.057C3553.78 369.057 3522.39 381.637 3487.85 411.515V376.133C3451.75 376.919 3435.26 376.919 3411.72 376.919H3371.69C3359.91 376.919 3357.56 376.919 3319.88 375.347V460.262L3372.47 459.476V663.903L3319.88 662.33V747.246Z" fill="#B61F36"/>
<path d="M3785.41 631.666C3785.41 703.215 3838.78 754.322 3913.35 754.322C3952.6 754.322 3980.07 744.101 4013.82 715.009V747.246C4041.29 746.459 4043.64 746.459 4052.28 746.459H4126.84C4132.34 746.459 4132.34 746.459 4179.43 747.246V662.33L4126.84 663.903V515.3C4126.84 487.781 4126.06 475.987 4123.7 464.194C4117.43 433.53 4099.37 409.156 4071.12 392.644C4042.86 376.919 4008.32 369.057 3963.58 369.057C3874.89 369.057 3823.87 395.003 3786.98 460.262L3889.02 478.346C3901.58 454.759 3919.63 445.324 3949.46 445.324C3992.63 445.324 4013.82 465.766 4013.82 506.651V531.025C3983.99 517.659 3957.3 512.155 3925.12 512.155C3842.71 512.155 3785.41 561.689 3785.41 631.666ZM3902.36 627.735C3902.36 602.575 3921.98 584.491 3947.89 584.491C3967.51 584.491 3980.85 589.208 4013.82 607.292V639.529C3980.85 664.689 3965.94 671.765 3946.32 671.765C3919.63 671.765 3902.36 654.467 3902.36 627.735Z" fill="#B61F36"/>
<path d="M4261.06 725.23C4279.11 743.314 4311.29 754.322 4344.26 754.322C4375.65 754.322 4402.34 748.032 4425.89 734.665V645.032C4410.97 652.895 4399.98 656.04 4385.86 656.04C4363.09 656.04 4354.46 644.246 4354.46 615.155V459.476L4421.18 460.262V375.347L4354.46 376.919V233.821L4241.43 332.889V376.919L4194.34 375.347V460.262L4239.08 459.476V660.757C4239.08 690.635 4246.14 710.292 4261.06 725.23Z" fill="#B61F36"/>
<path d="M4469.9 631.666C4469.9 703.215 4523.28 754.322 4597.84 754.322C4637.09 754.322 4664.56 744.101 4698.31 715.009V747.246C4725.78 746.459 4728.14 746.459 4736.77 746.459H4811.34C4816.83 746.459 4816.83 746.459 4863.92 747.246V662.33L4811.34 663.903V515.3C4811.34 487.781 4810.55 475.987 4808.2 464.194C4801.92 433.53 4783.86 409.156 4755.61 392.644C4727.35 376.919 4692.82 369.057 4648.08 369.057C4559.38 369.057 4508.36 395.003 4471.47 460.262L4573.51 478.346C4586.07 454.759 4604.12 445.324 4633.95 445.324C4677.12 445.324 4698.31 465.766 4698.31 506.651V531.025C4668.48 517.659 4641.8 512.155 4609.62 512.155C4527.2 512.155 4469.9 561.689 4469.9 631.666ZM4586.85 627.735C4586.85 602.575 4606.48 584.491 4632.38 584.491C4652 584.491 4665.34 589.208 4698.31 607.292V639.529C4665.34 664.689 4650.43 671.765 4630.81 671.765C4604.12 671.765 4586.85 654.467 4586.85 627.735Z" fill="#B61F36"/>
<path d="M4884.96 747.246C4928.92 746.459 4932.84 746.459 4937.55 746.459H5047.44C5052.93 746.459 5052.93 746.459 5100.03 747.246V662.33L5052.93 663.903V563.262L5205.99 747.246C5231.11 746.459 5243.67 746.459 5257.01 746.459C5270.35 746.459 5271.14 746.459 5332.36 747.246V662.33L5272.71 663.903L5178.52 549.109L5284.48 450.827L5326.86 451.614V376.133H5274.28C5253.08 376.133 5239.74 376.919 5234.25 376.919H5165.17C5160.47 376.919 5148.69 376.133 5131.42 376.133H5096.89V450.827L5165.17 449.255L5052.93 551.468V221.241C4997.99 222.027 4992.5 222.027 4974.44 222.027H4937.55C4932.06 222.027 4932.06 222.027 4884.96 221.241V306.156L4937.55 305.37V663.903L4884.96 662.33V747.246Z" fill="#B61F36"/>
<path d="M5373.62 631.666C5373.62 703.215 5426.99 754.322 5501.55 754.322C5540.8 754.322 5568.27 744.101 5602.02 715.009V747.246C5629.49 746.459 5631.85 746.459 5640.48 746.459H5715.05C5720.54 746.459 5720.54 746.459 5767.64 747.246V662.33L5715.05 663.903V515.3C5715.05 487.781 5714.26 475.987 5711.91 464.194C5705.63 433.53 5687.58 409.156 5659.32 392.644C5631.06 376.919 5596.53 369.057 5551.79 369.057C5463.09 369.057 5412.08 395.003 5375.19 460.262L5477.22 478.346C5489.78 454.759 5507.83 445.324 5537.66 445.324C5580.83 445.324 5602.02 465.766 5602.02 506.651V531.025C5572.2 517.659 5545.51 512.155 5513.33 512.155C5430.91 512.155 5373.62 561.689 5373.62 631.666ZM5490.57 627.735C5490.57 602.575 5510.19 584.491 5536.09 584.491C5555.71 584.491 5569.06 589.208 5602.02 607.292V639.529C5569.06 664.689 5554.14 671.765 5534.52 671.765C5507.83 671.765 5490.57 654.467 5490.57 627.735Z" fill="#B61F36"/>
<path fill-rule="evenodd" clip-rule="evenodd" d="M1903.66 220.454H574.186V242.382H1595.24V274.893H1903.67V224.493H1903.66V220.454Z" fill="#B61F36"/>
<path d="M5058.07 979.874H5091.67V944.849H5058.07V979.874Z" fill="#B61F36"/>
<path d="M5265.24 918.49C5253.57 942.683 5236.59 954.598 5213.25 954.598C5178.95 954.598 5157.03 930.767 5157.03 892.853C5157.03 856.384 5176.83 834.358 5210.07 834.358C5224.92 834.358 5239.42 839.774 5247.55 848.44C5253.21 854.579 5256.39 861.8 5259.58 875.521H5284.33C5283.62 851.69 5283.62 846.996 5283.62 841.219C5283.62 834.719 5283.62 830.747 5284.33 808.721H5259.93L5260.28 827.498C5242.96 812.693 5227.04 806.555 5205.83 806.555C5159.5 806.555 5125.91 843.385 5125.91 893.576C5125.91 945.21 5161.98 982.402 5211.49 982.402C5246.49 982.402 5272.31 965.792 5289.99 931.85L5265.24 918.49Z" fill="#B61F36"/>
<path d="M5314.8 895.742C5314.8 947.377 5347.34 982.763 5394.37 982.763C5441.75 982.763 5474.29 947.016 5474.29 895.02C5474.29 843.385 5441.4 806.555 5395.08 806.555C5347.34 806.555 5314.8 842.663 5314.8 895.742ZM5345.92 896.103C5345.92 857.467 5364.31 834.358 5395.43 834.358C5424.78 834.358 5443.17 858.19 5443.17 896.103C5443.17 932.211 5424.07 954.959 5393.66 954.959C5365.02 954.959 5345.92 931.489 5345.92 896.103Z" fill="#B61F36"/>
<path d="M5493.59 980.235C5503.84 979.874 5507.02 979.874 5519.05 979.874H5549.1C5561.13 979.874 5564.66 979.874 5574.92 980.235V955.681L5548.75 956.043V859.995C5561.13 843.024 5576.33 833.997 5591.89 833.997C5600.38 833.997 5607.8 837.247 5611.69 842.663C5615.58 848.079 5616.29 851.69 5616.29 865.411V980.235C5626.54 979.874 5630.43 979.874 5636.09 979.874H5648.82C5655.54 979.874 5660.49 979.874 5671.45 980.235V955.681L5645.64 956.043V859.995C5659.08 842.663 5672.87 834.358 5689.13 834.358C5705.05 834.358 5712.47 843.385 5712.47 862.161V980.235C5722.37 979.874 5726.62 979.874 5730.86 979.874H5745.01C5753.49 979.874 5757.38 979.874 5767.64 980.235V955.681L5741.82 956.043V858.912C5741.82 837.608 5739.7 829.664 5731.57 820.637C5723.08 811.61 5710.71 806.555 5695.5 806.555C5675.7 806.555 5662.61 812.693 5642.81 831.108C5633.26 813.054 5621.59 806.194 5600.38 806.194C5581.99 806.194 5569.26 811.61 5548.4 828.942L5548.75 808.721C5534.6 809.083 5533.19 809.083 5529.3 809.083H5519.05C5511.62 809.083 5505.96 809.083 5493.59 808.36V833.275L5519.4 832.553V956.043L5493.59 955.681V980.235Z" fill="#B61F36"/>
<path d="M111.695 830.268V982.74H87.6473V830.268H0.282898V806.221H198.931V830.268H111.695Z" fill="#707070"/>
<path d="M398.731 856.49C398.731 839.009 373.873 830.268 324.158 830.268H248.178V882.585H326.077C374.513 882.585 398.731 873.887 398.731 856.49ZM390.545 982.74L314.053 906.632H248.178V982.74H224.13V806.221H317.123C346.116 806.221 368.117 808.395 383.126 812.744C409.561 820.248 422.779 834.831 422.779 856.49C422.779 886.422 397.537 902.837 347.054 905.737L424.313 982.74H390.545Z" fill="#707070"/>
<path d="M657.626 894.608C657.626 927.269 648.928 950.549 631.532 964.449C616.097 976.643 591.666 982.74 558.238 982.74C524.81 982.74 500.379 976.643 484.944 964.449C467.548 950.549 458.85 927.269 458.85 894.608V806.221H482.897V894.608C482.897 920.447 489.293 938.013 502.084 947.308C512.744 955.154 531.462 959.076 558.238 959.076C585.014 959.076 603.732 955.154 614.392 947.308C627.183 938.013 633.579 920.447 633.579 894.608V806.221H657.626V894.608Z" fill="#707070"/>
<path d="M788.609 830.268V982.74H764.561V830.268H677.197V806.221H875.845V830.268H788.609Z" fill="#707070"/>
<path d="M1075.64 982.74V906.632H925.092V982.74H901.044V806.221H925.092V882.585H1075.64V806.221H1099.69V982.74H1075.64Z" fill="#707070"/>
<path d="M1250.5 982.74V806.221H1427.4V830.268H1274.55V882.585H1427.4V906.632H1274.55V959.076H1427.4V982.74H1250.5Z" fill="#707070"/>
<path d="M1644.34 982.74L1493.02 840.501V982.74H1468.98V806.221H1492.38L1643.58 948.843V806.221H1667.62V982.74H1644.34Z" fill="#707070"/>
<path d="M1883.8 894.608C1883.8 869.111 1875.31 851.459 1858.34 841.653C1845.38 834.063 1825.13 830.268 1797.58 830.268H1733.24V959.076H1797.58C1825.13 959.076 1845.38 955.282 1858.34 947.692C1875.31 937.886 1883.8 920.191 1883.8 894.608ZM1907.84 894.608C1907.84 927.013 1897.14 950.464 1875.74 964.96C1857.75 976.814 1831.69 982.74 1797.58 982.74H1709.2V806.221H1797.58C1831.95 806.221 1858 812.275 1875.74 824.384C1897.14 838.881 1907.84 862.289 1907.84 894.608Z" fill="#707070"/>
<path d="M2131.69 894.608C2131.69 927.269 2122.99 950.549 2105.6 964.449C2090.16 976.643 2065.73 982.74 2032.3 982.74C1998.88 982.74 1974.44 976.643 1959.01 964.449C1941.61 950.549 1932.92 927.269 1932.92 894.608V806.221H1956.96V894.608C1956.96 920.447 1963.36 938.013 1976.15 947.308C1986.81 955.154 2005.53 959.076 2032.3 959.076C2059.08 959.076 2077.8 955.154 2088.46 947.308C2101.25 938.013 2107.64 920.447 2107.64 894.608V806.221H2131.69V894.608Z" fill="#707070"/>
<path d="M2342.24 856.49C2342.24 839.009 2317.38 830.268 2267.66 830.268H2191.68V882.585H2269.58C2318.02 882.585 2342.24 873.887 2342.24 856.49ZM2334.05 982.74L2257.56 906.632H2191.68V982.74H2167.64V806.221H2260.63C2289.62 806.221 2311.62 808.395 2326.63 812.744C2353.07 820.248 2366.28 834.831 2366.28 856.49C2366.28 886.422 2341.04 902.837 2290.56 905.737L2367.82 982.74H2334.05Z" fill="#707070"/>
<path d="M2407.86 982.74V806.221H2584.76V830.268H2431.9V882.585H2584.76V906.632H2431.9V959.076H2584.76V982.74H2407.86Z" fill="#707070"/>
<path d="M2846.85 932.854C2846.85 954.941 2832.95 969.693 2805.15 977.112C2790.14 980.864 2767.29 982.74 2736.59 982.74C2708.79 982.74 2688.07 981.376 2674.43 978.647C2648.76 973.189 2633.24 961.933 2627.87 944.878L2651.27 938.355C2655.88 948.076 2669.99 954.386 2693.61 957.286C2698.73 957.968 2705.47 958.479 2713.82 958.821C2722.18 959.162 2732.37 959.332 2744.39 959.332C2796.67 959.332 2822.8 950.506 2822.8 932.854C2822.8 920.319 2809.8 912.26 2783.79 908.679C2778.93 907.997 2772.11 907.485 2763.32 907.144C2754.54 906.803 2743.58 906.632 2730.45 906.632C2702.48 906.632 2680.82 904.372 2665.47 899.853C2639.38 892.178 2626.33 877.724 2626.33 856.49C2626.33 834.319 2640.23 819.524 2668.03 812.105C2682.61 808.182 2705.47 806.221 2736.59 806.221C2764.56 806.221 2785.45 807.756 2799.27 810.826C2825.19 816.624 2840.63 828.264 2845.57 845.746L2822.16 851.63C2817.9 841.567 2804.09 835.044 2780.72 832.059C2775.78 831.377 2769.04 830.865 2760.51 830.524C2751.98 830.183 2741.54 830.012 2729.17 830.012C2676.64 830.012 2650.38 838.838 2650.38 856.49C2650.38 868.855 2663.04 876.829 2688.37 880.41C2693.31 881.092 2700.09 881.647 2708.71 882.073C2717.32 882.414 2727.94 882.585 2740.56 882.585C2769.89 882.585 2792.02 884.802 2806.94 889.236C2833.55 896.826 2846.85 911.365 2846.85 932.854Z" fill="#707070"/>
</svg>
